<?xml version="1.0" standalone="no"?><!DOCTYPE svg PUBLIC "-//W3C//DTD SVG 1.1//EN" "http://www.w3.org/Graphics/SVG/1.1/DTD/svg11.dtd"><svg t="1729493593294" class="icon" viewBox="0 0 1024 1024" version="1.1" xmlns="http://www.w3.org/2000/svg" p-id="4836" xmlns:xlink="http://www.w3.org/1999/xlink" width="200" height="200"><path d="M512.43472 1023.99936a511.99968 511.99968 0 0 1-255.99984-68.319957 31.99998 31.99998 0 1 1 31.99998-55.359966 447.99972 447.99972 0 0 0 447.99972 0 31.99998 31.99998 0 0 1 31.99998 55.519966A511.99968 511.99968 0 0 1 512.43472 1023.99936zM928.43446 783.99951a31.99998 31.99998 0 0 1-15.99999-4.319997 31.99998 31.99998 0 0 1-11.999992-43.679973 447.99972 447.99972 0 0 0 0-447.99972 31.99998 31.99998 0 1 1 55.359965-31.99998 511.99968 511.99968 0 0 1 0 511.99968A31.99998 31.99998 0 0 1 928.43446 783.99951zM752.43457 127.99992a31.99998 31.99998 0 0 1-15.99999-4.159997 447.99972 447.99972 0 0 0-447.99972 0 31.99998 31.99998 0 0 1-31.99998-55.359966 511.99968 511.99968 0 0 1 511.99968 0A31.99998 31.99998 0 0 1 780.114553 111.99993 31.99998 31.99998 0 0 1 752.43457 127.99992zM96.43498 783.99951a31.99998 31.99998 0 0 1-27.839983-15.99999 511.99968 511.99968 0 0 1 0-511.99968 31.99998 31.99998 0 0 1 55.519966 31.99998 447.99972 447.99972 0 0 0 0 447.99972A31.99998 31.99998 0 0 1 112.43497 779.679513 31.99998 31.99998 0 0 1 96.43498 783.99951z" p-id="4837" fill="#bfbfbf"></path><path d="M144.43495 895.99944a95.99994 95.99994 0 1 1 95.99994-95.99994 95.99994 95.99994 0 0 1-95.99994 95.99994z m0-127.99992a31.99998 31.99998 0 1 0 31.99998 31.99998 31.99998 31.99998 0 0 0-31.99998-31.99998zM880.43449 319.9998a95.99994 95.99994 0 1 1 95.99994-95.99994 95.99994 95.99994 0 0 1-95.99994 95.99994z m0-127.99992a31.99998 31.99998 0 1 0 31.99998 31.99998 31.99998 31.99998 0 0 0-31.99998-31.99998zM512.43472 767.99952a255.99984 255.99984 0 1 1 255.99984-255.99984 255.99984 255.99984 0 0 1-255.99984 255.99984z m0-447.99972a191.99988 191.99988 0 1 0 191.99988 191.99988 191.99988 191.99988 0 0 0-191.99988-191.99988z" p-id="4838" fill="#bfbfbf"></path><path d="M152.434945 543.99966a31.99998 31.99998 0 0 1-31.99998-31.99998A392.479755 392.479755 0 0 1 512.43472 119.999925a31.99998 31.99998 0 0 1 0 63.99996A328.479795 328.479795 0 0 0 184.434925 511.99968a31.99998 31.99998 0 0 1-31.99998 31.99998zM512.43472 903.999435a31.99998 31.99998 0 0 1 0-63.99996A328.479795 328.479795 0 0 0 840.434515 511.99968a31.99998 31.99998 0 0 1 63.99996 0A392.479755 392.479755 0 0 1 512.43472 903.999435zM512.43472 575.99964a95.99994 95.99994 0 1 1 95.99994-95.99994 95.99994 95.99994 0 0 1-95.99994 95.99994z m0-127.99992a31.99998 31.99998 0 1 0 31.99998 31.99998 31.99998 31.99998 0 0 0-31.99998-31.99998z" p-id="4839" fill="#bfbfbf"></path><path d="M400.43479 680.159575h-63.99996v-63.99996a126.719921 126.719921 0 0 1 38.879976-91.679943 107.359933 107.359933 0 0 1 123.519923-15.99999 30.399981 30.399981 0 0 0 27.039983 0 107.679933 107.679933 0 0 1 123.679922 15.99999A126.719921 126.719921 0 0 1 688.43461 616.479615V671.99958h-63.99996v-55.519965a63.039961 63.039961 0 0 0-19.519988-45.759972 44.479972 44.479972 0 0 0-50.719968-4.319997 95.039941 95.039941 0 0 1-83.519948 0 44.799972 44.799972 0 0 0-50.719968 4.479997A63.039961 63.039961 0 0 0 400.43479 616.479615z" p-id="4840" fill="#bfbfbf"></path></svg>