<?xml version="1.0" standalone="no"?><!DOCTYPE svg PUBLIC "-//W3C//DTD SVG 1.1//EN" "http://www.w3.org/Graphics/SVG/1.1/DTD/svg11.dtd"><svg t="1729479007436" class="icon" viewBox="0 0 1024 1024" version="1.1" xmlns="http://www.w3.org/2000/svg" p-id="4278" xmlns:xlink="http://www.w3.org/1999/xlink" width="200" height="200"><path d="M512 1023.658667C229.866667 1023.658667 0.341333 794.112 0.341333 512S229.866667 0.32 512 0.32 1023.658667 229.866667 1023.658667 512 794.133333 1023.658667 512 1023.658667z m0-959.338667C265.152 64.32 64.341333 265.130667 64.341333 512S265.152 959.658667 512 959.658667 959.658667 758.848 959.658667 512 758.848 64.32 512 64.32z" fill="#1296db" p-id="4279"></path><path d="M798.016 891.221333c-106.538667 0-277.888-114.773333-414.186667-251.072-92.181333-92.181333-167.018667-191.082667-210.709333-278.506666-47.829333-95.658667-53.141333-166.165333-15.381333-203.925334 37.738667-37.781333 108.245333-32.448 203.925333 15.381334 87.424 43.712 186.325333 118.549333 278.506667 210.730666 171.733333 171.733333 309.333333 399.168 226.112 482.410667-17.216 17.216-40.533333 24.981333-68.266667 24.981333zM225.941333 175.594667c-16.810667 0-29.781333 4.053333-38.037333 12.309333-22.528 22.528-13.781333 80.341333 23.381333 154.666667 41.706667 83.413333 113.706667 178.389333 202.709334 267.413333 191.018667 190.997333 375.786667 272.469333 422.08 226.112 46.336-46.357333-35.114667-231.104-226.112-422.08-89.024-89.024-184-161.024-267.413334-202.730667-47.061333-23.530667-87.530667-35.690667-116.608-35.690666z" fill="#1296db" p-id="4280"></path><path d="M225.984 891.221333c-27.733333 0-51.050667-7.765333-68.245333-24.96-83.242667-83.242667 54.357333-310.677333 226.112-482.410666 92.181333-92.181333 191.082667-167.018667 278.506666-210.730667 95.68-47.786667 166.186667-53.12 203.925334-15.381333 37.76 37.76 32.448 108.245333-15.381334 203.925333-43.712 87.424-118.549333 186.304-210.709333 278.506667-136.298667 136.256-307.669333 251.050667-414.208 251.050666zM798.058667 175.594667c-29.056 0-69.525333 12.138667-116.629334 35.690666-83.413333 41.706667-178.389333 113.706667-267.413333 202.730667-190.997333 190.976-272.448 375.722667-226.112 422.08 46.314667 46.250667 231.082667-35.114667 422.08-226.112 89.024-89.024 161.002667-184 202.709333-267.413333 37.162667-74.325333 45.909333-132.138667 23.381334-154.666667-8.234667-8.234667-21.226667-12.309333-38.016-12.309333z" fill="#1296db" p-id="4281"></path></svg>