<?xml version="1.0" standalone="no"?><!DOCTYPE svg PUBLIC "-//W3C//DTD SVG 1.1//EN" "http://www.w3.org/Graphics/SVG/1.1/DTD/svg11.dtd"><svg t="1729480518032" class="icon" viewBox="0 0 1024 1024" version="1.1" xmlns="http://www.w3.org/2000/svg" p-id="4474" xmlns:xlink="http://www.w3.org/1999/xlink" width="200" height="200"><path d="M512 682.666667c72.533333 0 128 55.466667 128 128s-55.466667 128-128 128-128-55.466667-128-128 55.466667-128 128-128z m298.666667-512c72.533333 0 128 55.466667 128 128s-55.466667 128-128 128-128-55.466667-128-128 55.466667-128 128-128zM213.333333 170.666667c72.533333 0 128 55.466667 128 128s-55.466667 128-128 128-128-55.466667-128-128 55.466667-128 128-128zM128 448c25.6 12.8 55.466667 21.333333 85.333333 21.333333 12.8 0 29.866667 0 42.666667-4.266666v4.266666c0 98.133333 51.2 179.2 132.266667 226.133334C358.4 725.333333 341.333333 763.733333 341.333333 810.666667v4.266666c-128-64-213.333333-196.266667-213.333333-345.6v-21.333333z m640 21.333333v-4.266666c12.8 4.266667 29.866667 4.266667 42.666667 4.266666 29.866667 0 59.733333-8.533333 85.333333-21.333333v21.333333c0 149.333333-85.333333 281.6-213.333333 345.6V810.666667c0-42.666667-17.066667-85.333333-42.666667-115.2l-4.266667-4.266667c81.066667-42.666667 132.266667-123.733333 132.266667-221.866667z m-256-384c81.066667 0 153.6 25.6 213.333333 64-12.8 8.533333-25.6 17.066667-34.133333 25.6-21.333333 21.333333-34.133333 46.933333-42.666667 72.533334-42.666667-21.333333-85.333333-34.133333-136.533333-34.133334-51.2 0-93.866667 12.8-136.533333 38.4-8.533333-29.866667-21.333333-55.466667-42.666667-72.533333-8.533333-12.8-21.333333-21.333333-34.133333-29.866667C358.4 110.933333 430.933333 85.333333 512 85.333333zM384 469.333333a128 128 0 1 0 256 0 128 128 0 0 0-256 0z" fill="#13c2c2" p-id="4475"></path></svg>